# xmcd CD database file
#
# Track frame offsets:
#	150
#	43550
#	68122
#	123682
#	167568
#	176533
#	220826
#
# Disc length: 3509 seconds
#
# Revision: 0
# Processed by: cddbd v1.5.2PL0 Copyright (c) Steve Scherf et al.
# Submitted via: CDex 1.70beta2
#
DISCID=5f0db307
DTITLE=Matthias Spillmann Quartet - Live at Bird's Eye Jazz Club
DYEAR=2006
DGENRE=Jazz
TTITLE0=I'll Be Seeing You
TTITLE1=Lotos Blossom
TTITLE2=Allemande
TTITLE3=Minorities
TTITLE4=Introduction
TTITLE5=Lonely Child
TTITLE6=Kinderlied
EXTD=YEAR: 2006
EXTT0=
EXTT1=
EXTT2=
EXTT3=
EXTT4=
EXTT5=
EXTT6=
PLAYORDER=
